<mxfile host="app.diagrams.net" modified="2021-11-05T23:14:35.883Z" agent="5.0 (Windows NT 10.0; Win64; x64) AppleWebKit/537.36 (KHTML, like Gecko) Chrome/95.0.4638.69 Safari/537.36" etag="RSD90-8vREHT3yGtDnZG" version="15.7.0" type="github">
  <diagram id="tO70rBy8VKs9kWIGF7lf" name="Page-1">
    <mxGraphModel dx="3472" dy="1928" grid="1" gridSize="10" guides="1" tooltips="1" connect="1" arrows="1" fold="1" page="1" pageScale="1" pageWidth="850" pageHeight="1100" math="0" shadow="0">
      <root>
        <mxCell id="0" />
        <mxCell id="1" parent="0" />
        <mxCell id="wTdHdL9RrJSgVrG5RqWx-10" style="edgeStyle=orthogonalEdgeStyle;rounded=0;orthogonalLoop=1;jettySize=auto;html=1;" edge="1" parent="1" source="wTdHdL9RrJSgVrG5RqWx-1" target="wTdHdL9RrJSgVrG5RqWx-5">
          <mxGeometry relative="1" as="geometry">
            <Array as="points">
              <mxPoint x="420" y="280" />
            </Array>
          </mxGeometry>
        </mxCell>
        <mxCell id="wTdHdL9RrJSgVrG5RqWx-1" value="Pesanan" style="ellipse;whiteSpace=wrap;html=1;" vertex="1" parent="1">
          <mxGeometry x="360" y="40" width="120" height="80" as="geometry" />
        </mxCell>
        <mxCell id="wTdHdL9RrJSgVrG5RqWx-6" style="edgeStyle=orthogonalEdgeStyle;rounded=0;orthogonalLoop=1;jettySize=auto;html=1;" edge="1" parent="1" source="wTdHdL9RrJSgVrG5RqWx-2" target="wTdHdL9RrJSgVrG5RqWx-1">
          <mxGeometry relative="1" as="geometry" />
        </mxCell>
        <mxCell id="wTdHdL9RrJSgVrG5RqWx-9" style="edgeStyle=orthogonalEdgeStyle;rounded=0;orthogonalLoop=1;jettySize=auto;html=1;startArrow=none;" edge="1" parent="1" source="wTdHdL9RrJSgVrG5RqWx-18" target="wTdHdL9RrJSgVrG5RqWx-5">
          <mxGeometry relative="1" as="geometry" />
        </mxCell>
        <mxCell id="wTdHdL9RrJSgVrG5RqWx-2" value="Produk" style="ellipse;whiteSpace=wrap;html=1;" vertex="1" parent="1">
          <mxGeometry x="80" y="40" width="120" height="80" as="geometry" />
        </mxCell>
        <mxCell id="wTdHdL9RrJSgVrG5RqWx-3" value="Supplier" style="ellipse;whiteSpace=wrap;html=1;" vertex="1" parent="1">
          <mxGeometry x="640" y="40" width="120" height="80" as="geometry" />
        </mxCell>
        <mxCell id="wTdHdL9RrJSgVrG5RqWx-11" style="edgeStyle=orthogonalEdgeStyle;rounded=0;orthogonalLoop=1;jettySize=auto;html=1;startArrow=none;" edge="1" parent="1" source="wTdHdL9RrJSgVrG5RqWx-16" target="wTdHdL9RrJSgVrG5RqWx-3">
          <mxGeometry relative="1" as="geometry">
            <mxPoint x="710" y="180" as="targetPoint" />
          </mxGeometry>
        </mxCell>
        <mxCell id="wTdHdL9RrJSgVrG5RqWx-13" style="edgeStyle=orthogonalEdgeStyle;rounded=0;orthogonalLoop=1;jettySize=auto;html=1;" edge="1" parent="1" source="wTdHdL9RrJSgVrG5RqWx-4" target="wTdHdL9RrJSgVrG5RqWx-1">
          <mxGeometry relative="1" as="geometry">
            <Array as="points">
              <mxPoint x="560" y="280" />
              <mxPoint x="560" y="80" />
            </Array>
          </mxGeometry>
        </mxCell>
        <mxCell id="wTdHdL9RrJSgVrG5RqWx-4" value="User/Pemesan" style="ellipse;whiteSpace=wrap;html=1;" vertex="1" parent="1">
          <mxGeometry x="640" y="240" width="120" height="80" as="geometry" />
        </mxCell>
        <mxCell id="wTdHdL9RrJSgVrG5RqWx-5" value="Admin/Penjual" style="ellipse;whiteSpace=wrap;html=1;" vertex="1" parent="1">
          <mxGeometry x="80" y="240" width="120" height="80" as="geometry" />
        </mxCell>
        <mxCell id="wTdHdL9RrJSgVrG5RqWx-8" value="" style="endArrow=classic;startArrow=classic;html=1;rounded=0;" edge="1" parent="1" source="wTdHdL9RrJSgVrG5RqWx-1" target="wTdHdL9RrJSgVrG5RqWx-3">
          <mxGeometry width="50" height="50" relative="1" as="geometry">
            <mxPoint x="400" y="180" as="sourcePoint" />
            <mxPoint x="450" y="130" as="targetPoint" />
          </mxGeometry>
        </mxCell>
        <mxCell id="wTdHdL9RrJSgVrG5RqWx-12" style="edgeStyle=orthogonalEdgeStyle;rounded=0;orthogonalLoop=1;jettySize=auto;html=1;exitX=0.5;exitY=1;exitDx=0;exitDy=0;" edge="1" parent="1" source="wTdHdL9RrJSgVrG5RqWx-3" target="wTdHdL9RrJSgVrG5RqWx-3">
          <mxGeometry relative="1" as="geometry" />
        </mxCell>
        <mxCell id="wTdHdL9RrJSgVrG5RqWx-14" value="Dipesan" style="text;html=1;strokeColor=none;fillColor=none;align=center;verticalAlign=middle;whiteSpace=wrap;rounded=0;" vertex="1" parent="1">
          <mxGeometry x="530" y="50" width="60" height="30" as="geometry" />
        </mxCell>
        <mxCell id="wTdHdL9RrJSgVrG5RqWx-15" value="Dipesan" style="text;html=1;strokeColor=none;fillColor=none;align=center;verticalAlign=middle;whiteSpace=wrap;rounded=0;labelBackgroundColor=default;" vertex="1" parent="1">
          <mxGeometry x="530" y="170" width="60" height="30" as="geometry" />
        </mxCell>
        <mxCell id="wTdHdL9RrJSgVrG5RqWx-16" value="Diverifikasi" style="text;html=1;strokeColor=none;fillColor=none;align=center;verticalAlign=middle;whiteSpace=wrap;rounded=0;labelBackgroundColor=default;" vertex="1" parent="1">
          <mxGeometry x="670" y="170" width="60" height="30" as="geometry" />
        </mxCell>
        <mxCell id="wTdHdL9RrJSgVrG5RqWx-17" value="" style="edgeStyle=orthogonalEdgeStyle;rounded=0;orthogonalLoop=1;jettySize=auto;html=1;endArrow=none;" edge="1" parent="1" source="wTdHdL9RrJSgVrG5RqWx-4" target="wTdHdL9RrJSgVrG5RqWx-16">
          <mxGeometry relative="1" as="geometry">
            <mxPoint x="700" y="120" as="targetPoint" />
            <mxPoint x="700" y="240" as="sourcePoint" />
          </mxGeometry>
        </mxCell>
        <mxCell id="wTdHdL9RrJSgVrG5RqWx-18" value="Dibuat" style="text;html=1;strokeColor=none;fillColor=none;align=center;verticalAlign=middle;whiteSpace=wrap;rounded=0;labelBackgroundColor=default;" vertex="1" parent="1">
          <mxGeometry x="110" y="170" width="60" height="30" as="geometry" />
        </mxCell>
        <mxCell id="wTdHdL9RrJSgVrG5RqWx-19" value="" style="edgeStyle=orthogonalEdgeStyle;rounded=0;orthogonalLoop=1;jettySize=auto;html=1;endArrow=none;" edge="1" parent="1" source="wTdHdL9RrJSgVrG5RqWx-2" target="wTdHdL9RrJSgVrG5RqWx-18">
          <mxGeometry relative="1" as="geometry">
            <mxPoint x="140" y="120" as="sourcePoint" />
            <mxPoint x="140" y="240" as="targetPoint" />
          </mxGeometry>
        </mxCell>
        <mxCell id="wTdHdL9RrJSgVrG5RqWx-158" style="edgeStyle=orthogonalEdgeStyle;rounded=0;orthogonalLoop=1;jettySize=auto;html=1;" edge="1" parent="1" source="wTdHdL9RrJSgVrG5RqWx-152" target="wTdHdL9RrJSgVrG5RqWx-155">
          <mxGeometry relative="1" as="geometry" />
        </mxCell>
        <mxCell id="wTdHdL9RrJSgVrG5RqWx-160" style="edgeStyle=orthogonalEdgeStyle;rounded=0;orthogonalLoop=1;jettySize=auto;html=1;" edge="1" parent="1" source="wTdHdL9RrJSgVrG5RqWx-152" target="wTdHdL9RrJSgVrG5RqWx-154">
          <mxGeometry relative="1" as="geometry" />
        </mxCell>
        <mxCell id="wTdHdL9RrJSgVrG5RqWx-152" value="Order/Pesanan" style="ellipse;whiteSpace=wrap;html=1;labelBackgroundColor=default;" vertex="1" parent="1">
          <mxGeometry x="408" y="1410" width="120" height="80" as="geometry" />
        </mxCell>
        <mxCell id="wTdHdL9RrJSgVrG5RqWx-159" style="edgeStyle=orthogonalEdgeStyle;rounded=0;orthogonalLoop=1;jettySize=auto;html=1;" edge="1" parent="1" source="wTdHdL9RrJSgVrG5RqWx-153" target="wTdHdL9RrJSgVrG5RqWx-152">
          <mxGeometry relative="1" as="geometry" />
        </mxCell>
        <mxCell id="wTdHdL9RrJSgVrG5RqWx-162" style="edgeStyle=orthogonalEdgeStyle;rounded=0;orthogonalLoop=1;jettySize=auto;html=1;" edge="1" parent="1" source="wTdHdL9RrJSgVrG5RqWx-153" target="wTdHdL9RrJSgVrG5RqWx-156">
          <mxGeometry relative="1" as="geometry" />
        </mxCell>
        <mxCell id="wTdHdL9RrJSgVrG5RqWx-174" style="edgeStyle=orthogonalEdgeStyle;rounded=0;orthogonalLoop=1;jettySize=auto;html=1;" edge="1" parent="1" source="wTdHdL9RrJSgVrG5RqWx-153" target="wTdHdL9RrJSgVrG5RqWx-173">
          <mxGeometry relative="1" as="geometry">
            <Array as="points">
              <mxPoint x="468" y="1160" />
              <mxPoint x="423" y="1160" />
            </Array>
          </mxGeometry>
        </mxCell>
        <mxCell id="wTdHdL9RrJSgVrG5RqWx-175" style="edgeStyle=orthogonalEdgeStyle;rounded=0;orthogonalLoop=1;jettySize=auto;html=1;" edge="1" parent="1" source="wTdHdL9RrJSgVrG5RqWx-153" target="wTdHdL9RrJSgVrG5RqWx-172">
          <mxGeometry relative="1" as="geometry">
            <Array as="points">
              <mxPoint x="468" y="1160" />
              <mxPoint x="513" y="1160" />
            </Array>
          </mxGeometry>
        </mxCell>
        <mxCell id="wTdHdL9RrJSgVrG5RqWx-176" style="edgeStyle=orthogonalEdgeStyle;rounded=0;orthogonalLoop=1;jettySize=auto;html=1;entryX=0.5;entryY=1;entryDx=0;entryDy=0;" edge="1" parent="1" source="wTdHdL9RrJSgVrG5RqWx-153" target="wTdHdL9RrJSgVrG5RqWx-171">
          <mxGeometry relative="1" as="geometry">
            <Array as="points">
              <mxPoint x="468" y="1160" />
              <mxPoint x="603" y="1160" />
            </Array>
          </mxGeometry>
        </mxCell>
        <mxCell id="wTdHdL9RrJSgVrG5RqWx-177" style="edgeStyle=orthogonalEdgeStyle;rounded=0;orthogonalLoop=1;jettySize=auto;html=1;" edge="1" parent="1" source="wTdHdL9RrJSgVrG5RqWx-153" target="wTdHdL9RrJSgVrG5RqWx-170">
          <mxGeometry relative="1" as="geometry" />
        </mxCell>
        <mxCell id="wTdHdL9RrJSgVrG5RqWx-153" value="Admin/Penjual" style="ellipse;whiteSpace=wrap;html=1;labelBackgroundColor=default;" vertex="1" parent="1">
          <mxGeometry x="408" y="1180" width="120" height="80" as="geometry" />
        </mxCell>
        <mxCell id="wTdHdL9RrJSgVrG5RqWx-185" style="edgeStyle=orthogonalEdgeStyle;rounded=0;orthogonalLoop=1;jettySize=auto;html=1;entryX=1;entryY=0;entryDx=0;entryDy=0;" edge="1" parent="1" source="wTdHdL9RrJSgVrG5RqWx-154" target="wTdHdL9RrJSgVrG5RqWx-183">
          <mxGeometry relative="1" as="geometry" />
        </mxCell>
        <mxCell id="wTdHdL9RrJSgVrG5RqWx-186" style="edgeStyle=orthogonalEdgeStyle;rounded=0;orthogonalLoop=1;jettySize=auto;html=1;" edge="1" parent="1" source="wTdHdL9RrJSgVrG5RqWx-154" target="wTdHdL9RrJSgVrG5RqWx-184">
          <mxGeometry relative="1" as="geometry">
            <mxPoint x="458" y="1730" as="sourcePoint" />
          </mxGeometry>
        </mxCell>
        <mxCell id="wTdHdL9RrJSgVrG5RqWx-154" value="Consument/Pemesan" style="ellipse;whiteSpace=wrap;html=1;labelBackgroundColor=default;" vertex="1" parent="1">
          <mxGeometry x="408" y="1640" width="120" height="80" as="geometry" />
        </mxCell>
        <mxCell id="wTdHdL9RrJSgVrG5RqWx-181" style="edgeStyle=orthogonalEdgeStyle;rounded=0;orthogonalLoop=1;jettySize=auto;html=1;" edge="1" parent="1" source="wTdHdL9RrJSgVrG5RqWx-155" target="wTdHdL9RrJSgVrG5RqWx-179">
          <mxGeometry relative="1" as="geometry" />
        </mxCell>
        <mxCell id="wTdHdL9RrJSgVrG5RqWx-182" style="edgeStyle=orthogonalEdgeStyle;rounded=0;orthogonalLoop=1;jettySize=auto;html=1;" edge="1" parent="1" source="wTdHdL9RrJSgVrG5RqWx-155" target="wTdHdL9RrJSgVrG5RqWx-178">
          <mxGeometry relative="1" as="geometry" />
        </mxCell>
        <mxCell id="wTdHdL9RrJSgVrG5RqWx-155" value="Supplier" style="ellipse;whiteSpace=wrap;html=1;labelBackgroundColor=default;" vertex="1" parent="1">
          <mxGeometry x="688" y="1410" width="120" height="80" as="geometry" />
        </mxCell>
        <mxCell id="wTdHdL9RrJSgVrG5RqWx-157" style="edgeStyle=orthogonalEdgeStyle;rounded=0;orthogonalLoop=1;jettySize=auto;html=1;" edge="1" parent="1" source="wTdHdL9RrJSgVrG5RqWx-156" target="wTdHdL9RrJSgVrG5RqWx-152">
          <mxGeometry relative="1" as="geometry" />
        </mxCell>
        <mxCell id="wTdHdL9RrJSgVrG5RqWx-166" style="edgeStyle=orthogonalEdgeStyle;rounded=0;orthogonalLoop=1;jettySize=auto;html=1;" edge="1" parent="1" source="wTdHdL9RrJSgVrG5RqWx-156" target="wTdHdL9RrJSgVrG5RqWx-161">
          <mxGeometry relative="1" as="geometry">
            <Array as="points">
              <mxPoint x="188" y="1530" />
              <mxPoint x="53" y="1530" />
            </Array>
          </mxGeometry>
        </mxCell>
        <mxCell id="wTdHdL9RrJSgVrG5RqWx-167" style="edgeStyle=orthogonalEdgeStyle;rounded=0;orthogonalLoop=1;jettySize=auto;html=1;" edge="1" parent="1" source="wTdHdL9RrJSgVrG5RqWx-156" target="wTdHdL9RrJSgVrG5RqWx-163">
          <mxGeometry relative="1" as="geometry" />
        </mxCell>
        <mxCell id="wTdHdL9RrJSgVrG5RqWx-168" style="edgeStyle=orthogonalEdgeStyle;rounded=0;orthogonalLoop=1;jettySize=auto;html=1;" edge="1" parent="1" source="wTdHdL9RrJSgVrG5RqWx-156" target="wTdHdL9RrJSgVrG5RqWx-164">
          <mxGeometry relative="1" as="geometry" />
        </mxCell>
        <mxCell id="wTdHdL9RrJSgVrG5RqWx-169" style="edgeStyle=orthogonalEdgeStyle;rounded=0;orthogonalLoop=1;jettySize=auto;html=1;" edge="1" parent="1" source="wTdHdL9RrJSgVrG5RqWx-156" target="wTdHdL9RrJSgVrG5RqWx-165">
          <mxGeometry relative="1" as="geometry">
            <Array as="points">
              <mxPoint x="188" y="1530" />
              <mxPoint x="323" y="1530" />
            </Array>
          </mxGeometry>
        </mxCell>
        <mxCell id="wTdHdL9RrJSgVrG5RqWx-156" value="" style="ellipse;whiteSpace=wrap;html=1;labelBackgroundColor=default;" vertex="1" parent="1">
          <mxGeometry x="128" y="1410" width="120" height="80" as="geometry" />
        </mxCell>
        <mxCell id="wTdHdL9RrJSgVrG5RqWx-161" value="Price" style="ellipse;whiteSpace=wrap;html=1;labelBackgroundColor=default;" vertex="1" parent="1">
          <mxGeometry x="18" y="1570" width="70" height="40" as="geometry" />
        </mxCell>
        <mxCell id="wTdHdL9RrJSgVrG5RqWx-163" value="Name" style="ellipse;whiteSpace=wrap;html=1;labelBackgroundColor=default;" vertex="1" parent="1">
          <mxGeometry x="108" y="1570" width="70" height="40" as="geometry" />
        </mxCell>
        <mxCell id="wTdHdL9RrJSgVrG5RqWx-164" value="Image" style="ellipse;whiteSpace=wrap;html=1;labelBackgroundColor=default;" vertex="1" parent="1">
          <mxGeometry x="198" y="1570" width="70" height="40" as="geometry" />
        </mxCell>
        <mxCell id="wTdHdL9RrJSgVrG5RqWx-165" value="Descriptive" style="ellipse;whiteSpace=wrap;html=1;labelBackgroundColor=default;" vertex="1" parent="1">
          <mxGeometry x="288" y="1570" width="70" height="40" as="geometry" />
        </mxCell>
        <mxCell id="wTdHdL9RrJSgVrG5RqWx-170" value="Role" style="ellipse;whiteSpace=wrap;html=1;labelBackgroundColor=default;" vertex="1" parent="1">
          <mxGeometry x="568" y="1200" width="70" height="40" as="geometry" />
        </mxCell>
        <mxCell id="wTdHdL9RrJSgVrG5RqWx-171" value="Name" style="ellipse;whiteSpace=wrap;html=1;labelBackgroundColor=default;" vertex="1" parent="1">
          <mxGeometry x="568" y="1090" width="70" height="40" as="geometry" />
        </mxCell>
        <mxCell id="wTdHdL9RrJSgVrG5RqWx-172" value="Email" style="ellipse;whiteSpace=wrap;html=1;labelBackgroundColor=default;" vertex="1" parent="1">
          <mxGeometry x="478" y="1090" width="70" height="40" as="geometry" />
        </mxCell>
        <mxCell id="wTdHdL9RrJSgVrG5RqWx-173" value="Password" style="ellipse;whiteSpace=wrap;html=1;labelBackgroundColor=default;" vertex="1" parent="1">
          <mxGeometry x="388" y="1090" width="70" height="40" as="geometry" />
        </mxCell>
        <mxCell id="wTdHdL9RrJSgVrG5RqWx-178" value="Name" style="ellipse;whiteSpace=wrap;html=1;labelBackgroundColor=default;" vertex="1" parent="1">
          <mxGeometry x="763" y="1530" width="70" height="40" as="geometry" />
        </mxCell>
        <mxCell id="wTdHdL9RrJSgVrG5RqWx-179" value="Password" style="ellipse;whiteSpace=wrap;html=1;labelBackgroundColor=default;" vertex="1" parent="1">
          <mxGeometry x="663" y="1530" width="70" height="40" as="geometry" />
        </mxCell>
        <mxCell id="wTdHdL9RrJSgVrG5RqWx-183" value="Password" style="ellipse;whiteSpace=wrap;html=1;labelBackgroundColor=default;" vertex="1" parent="1">
          <mxGeometry x="368" y="1770" width="70" height="40" as="geometry" />
        </mxCell>
        <mxCell id="wTdHdL9RrJSgVrG5RqWx-184" value="Name" style="ellipse;whiteSpace=wrap;html=1;labelBackgroundColor=default;" vertex="1" parent="1">
          <mxGeometry x="478" y="1770" width="70" height="40" as="geometry" />
        </mxCell>
        <mxCell id="wTdHdL9RrJSgVrG5RqWx-187" value="Created" style="ellipse;whiteSpace=wrap;html=1;labelBackgroundColor=default;" vertex="1" parent="1">
          <mxGeometry x="528" y="1370" width="70" height="40" as="geometry" />
        </mxCell>
        <mxCell id="wTdHdL9RrJSgVrG5RqWx-213" value="Admin/Penjual" style="shape=table;startSize=30;container=1;collapsible=1;childLayout=tableLayout;fixedRows=1;rowLines=0;fontStyle=1;align=center;resizeLast=1;labelBackgroundColor=default;" vertex="1" parent="1">
          <mxGeometry x="18" y="550" width="332" height="200" as="geometry" />
        </mxCell>
        <mxCell id="wTdHdL9RrJSgVrG5RqWx-220" value="" style="shape=partialRectangle;collapsible=0;dropTarget=0;pointerEvents=0;fillColor=none;top=0;left=0;bottom=0;right=0;points=[[0,0.5],[1,0.5]];portConstraint=eastwest;labelBackgroundColor=default;" vertex="1" parent="wTdHdL9RrJSgVrG5RqWx-213">
          <mxGeometry y="30" width="332" height="30" as="geometry" />
        </mxCell>
        <mxCell id="wTdHdL9RrJSgVrG5RqWx-233" style="shape=partialRectangle;connectable=0;fillColor=none;top=0;left=0;bottom=0;right=0;editable=1;overflow=hidden;labelBackgroundColor=default;" vertex="1" parent="wTdHdL9RrJSgVrG5RqWx-220">
          <mxGeometry width="20" height="30" as="geometry">
            <mxRectangle width="20" height="30" as="alternateBounds" />
          </mxGeometry>
        </mxCell>
        <mxCell id="wTdHdL9RrJSgVrG5RqWx-221" value="Id" style="shape=partialRectangle;connectable=0;fillColor=none;top=0;left=0;bottom=0;right=0;editable=1;overflow=hidden;labelBackgroundColor=default;" vertex="1" parent="wTdHdL9RrJSgVrG5RqWx-220">
          <mxGeometry x="20" width="150" height="30" as="geometry">
            <mxRectangle width="150" height="30" as="alternateBounds" />
          </mxGeometry>
        </mxCell>
        <mxCell id="wTdHdL9RrJSgVrG5RqWx-222" value="big int" style="shape=partialRectangle;connectable=0;fillColor=none;top=0;left=0;bottom=0;right=0;align=left;spacingLeft=6;overflow=hidden;labelBackgroundColor=default;" vertex="1" parent="wTdHdL9RrJSgVrG5RqWx-220">
          <mxGeometry x="170" width="162" height="30" as="geometry">
            <mxRectangle width="162" height="30" as="alternateBounds" />
          </mxGeometry>
        </mxCell>
        <mxCell id="wTdHdL9RrJSgVrG5RqWx-252" style="shape=partialRectangle;collapsible=0;dropTarget=0;pointerEvents=0;fillColor=none;top=0;left=0;bottom=0;right=0;points=[[0,0.5],[1,0.5]];portConstraint=eastwest;labelBackgroundColor=default;" vertex="1" parent="wTdHdL9RrJSgVrG5RqWx-213">
          <mxGeometry y="60" width="332" height="30" as="geometry" />
        </mxCell>
        <mxCell id="wTdHdL9RrJSgVrG5RqWx-253" style="shape=partialRectangle;connectable=0;fillColor=none;top=0;left=0;bottom=0;right=0;editable=1;overflow=hidden;labelBackgroundColor=default;" vertex="1" parent="wTdHdL9RrJSgVrG5RqWx-252">
          <mxGeometry width="20" height="30" as="geometry">
            <mxRectangle width="20" height="30" as="alternateBounds" />
          </mxGeometry>
        </mxCell>
        <mxCell id="wTdHdL9RrJSgVrG5RqWx-254" value="Name" style="shape=partialRectangle;connectable=0;fillColor=none;top=0;left=0;bottom=0;right=0;editable=1;overflow=hidden;labelBackgroundColor=default;" vertex="1" parent="wTdHdL9RrJSgVrG5RqWx-252">
          <mxGeometry x="20" width="150" height="30" as="geometry">
            <mxRectangle width="150" height="30" as="alternateBounds" />
          </mxGeometry>
        </mxCell>
        <mxCell id="wTdHdL9RrJSgVrG5RqWx-255" value="varchar" style="shape=partialRectangle;connectable=0;fillColor=none;top=0;left=0;bottom=0;right=0;align=left;spacingLeft=6;overflow=hidden;labelBackgroundColor=default;" vertex="1" parent="wTdHdL9RrJSgVrG5RqWx-252">
          <mxGeometry x="170" width="162" height="30" as="geometry">
            <mxRectangle width="162" height="30" as="alternateBounds" />
          </mxGeometry>
        </mxCell>
        <mxCell id="wTdHdL9RrJSgVrG5RqWx-248" style="shape=partialRectangle;collapsible=0;dropTarget=0;pointerEvents=0;fillColor=none;top=0;left=0;bottom=0;right=0;points=[[0,0.5],[1,0.5]];portConstraint=eastwest;labelBackgroundColor=default;" vertex="1" parent="wTdHdL9RrJSgVrG5RqWx-213">
          <mxGeometry y="90" width="332" height="30" as="geometry" />
        </mxCell>
        <mxCell id="wTdHdL9RrJSgVrG5RqWx-249" style="shape=partialRectangle;connectable=0;fillColor=none;top=0;left=0;bottom=0;right=0;editable=1;overflow=hidden;labelBackgroundColor=default;" vertex="1" parent="wTdHdL9RrJSgVrG5RqWx-248">
          <mxGeometry width="20" height="30" as="geometry">
            <mxRectangle width="20" height="30" as="alternateBounds" />
          </mxGeometry>
        </mxCell>
        <mxCell id="wTdHdL9RrJSgVrG5RqWx-250" value="Role" style="shape=partialRectangle;connectable=0;fillColor=none;top=0;left=0;bottom=0;right=0;editable=1;overflow=hidden;labelBackgroundColor=default;" vertex="1" parent="wTdHdL9RrJSgVrG5RqWx-248">
          <mxGeometry x="20" width="150" height="30" as="geometry">
            <mxRectangle width="150" height="30" as="alternateBounds" />
          </mxGeometry>
        </mxCell>
        <mxCell id="wTdHdL9RrJSgVrG5RqWx-251" value="enum    " style="shape=partialRectangle;connectable=0;fillColor=none;top=0;left=0;bottom=0;right=0;align=left;spacingLeft=6;overflow=hidden;labelBackgroundColor=default;" vertex="1" parent="wTdHdL9RrJSgVrG5RqWx-248">
          <mxGeometry x="170" width="162" height="30" as="geometry">
            <mxRectangle width="162" height="30" as="alternateBounds" />
          </mxGeometry>
        </mxCell>
        <mxCell id="wTdHdL9RrJSgVrG5RqWx-244" style="shape=partialRectangle;collapsible=0;dropTarget=0;pointerEvents=0;fillColor=none;top=0;left=0;bottom=0;right=0;points=[[0,0.5],[1,0.5]];portConstraint=eastwest;labelBackgroundColor=default;" vertex="1" parent="wTdHdL9RrJSgVrG5RqWx-213">
          <mxGeometry y="120" width="332" height="30" as="geometry" />
        </mxCell>
        <mxCell id="wTdHdL9RrJSgVrG5RqWx-245" style="shape=partialRectangle;connectable=0;fillColor=none;top=0;left=0;bottom=0;right=0;editable=1;overflow=hidden;labelBackgroundColor=default;" vertex="1" parent="wTdHdL9RrJSgVrG5RqWx-244">
          <mxGeometry width="20" height="30" as="geometry">
            <mxRectangle width="20" height="30" as="alternateBounds" />
          </mxGeometry>
        </mxCell>
        <mxCell id="wTdHdL9RrJSgVrG5RqWx-246" value="Password" style="shape=partialRectangle;connectable=0;fillColor=none;top=0;left=0;bottom=0;right=0;editable=1;overflow=hidden;labelBackgroundColor=default;" vertex="1" parent="wTdHdL9RrJSgVrG5RqWx-244">
          <mxGeometry x="20" width="150" height="30" as="geometry">
            <mxRectangle width="150" height="30" as="alternateBounds" />
          </mxGeometry>
        </mxCell>
        <mxCell id="wTdHdL9RrJSgVrG5RqWx-247" value="varchar" style="shape=partialRectangle;connectable=0;fillColor=none;top=0;left=0;bottom=0;right=0;align=left;spacingLeft=6;overflow=hidden;labelBackgroundColor=default;" vertex="1" parent="wTdHdL9RrJSgVrG5RqWx-244">
          <mxGeometry x="170" width="162" height="30" as="geometry">
            <mxRectangle width="162" height="30" as="alternateBounds" />
          </mxGeometry>
        </mxCell>
        <mxCell id="wTdHdL9RrJSgVrG5RqWx-240" style="shape=partialRectangle;collapsible=0;dropTarget=0;pointerEvents=0;fillColor=none;top=0;left=0;bottom=0;right=0;points=[[0,0.5],[1,0.5]];portConstraint=eastwest;labelBackgroundColor=default;" vertex="1" parent="wTdHdL9RrJSgVrG5RqWx-213">
          <mxGeometry y="150" width="332" height="30" as="geometry" />
        </mxCell>
        <mxCell id="wTdHdL9RrJSgVrG5RqWx-241" style="shape=partialRectangle;connectable=0;fillColor=none;top=0;left=0;bottom=0;right=0;editable=1;overflow=hidden;labelBackgroundColor=default;" vertex="1" parent="wTdHdL9RrJSgVrG5RqWx-240">
          <mxGeometry width="20" height="30" as="geometry">
            <mxRectangle width="20" height="30" as="alternateBounds" />
          </mxGeometry>
        </mxCell>
        <mxCell id="wTdHdL9RrJSgVrG5RqWx-242" value="Email" style="shape=partialRectangle;connectable=0;fillColor=none;top=0;left=0;bottom=0;right=0;editable=1;overflow=hidden;labelBackgroundColor=default;" vertex="1" parent="wTdHdL9RrJSgVrG5RqWx-240">
          <mxGeometry x="20" width="150" height="30" as="geometry">
            <mxRectangle width="150" height="30" as="alternateBounds" />
          </mxGeometry>
        </mxCell>
        <mxCell id="wTdHdL9RrJSgVrG5RqWx-243" value="varchar" style="shape=partialRectangle;connectable=0;fillColor=none;top=0;left=0;bottom=0;right=0;align=left;spacingLeft=6;overflow=hidden;labelBackgroundColor=default;" vertex="1" parent="wTdHdL9RrJSgVrG5RqWx-240">
          <mxGeometry x="170" width="162" height="30" as="geometry">
            <mxRectangle width="162" height="30" as="alternateBounds" />
          </mxGeometry>
        </mxCell>
        <mxCell id="wTdHdL9RrJSgVrG5RqWx-260" value="Product" style="shape=table;startSize=30;container=1;collapsible=1;childLayout=tableLayout;fixedRows=1;rowLines=0;fontStyle=1;align=center;resizeLast=1;labelBackgroundColor=default;" vertex="1" parent="1">
          <mxGeometry x="480" y="360" width="332" height="230" as="geometry" />
        </mxCell>
        <mxCell id="wTdHdL9RrJSgVrG5RqWx-261" value="" style="shape=partialRectangle;collapsible=0;dropTarget=0;pointerEvents=0;fillColor=none;top=0;left=0;bottom=0;right=0;points=[[0,0.5],[1,0.5]];portConstraint=eastwest;labelBackgroundColor=default;" vertex="1" parent="wTdHdL9RrJSgVrG5RqWx-260">
          <mxGeometry y="30" width="332" height="30" as="geometry" />
        </mxCell>
        <mxCell id="wTdHdL9RrJSgVrG5RqWx-262" style="shape=partialRectangle;connectable=0;fillColor=none;top=0;left=0;bottom=0;right=0;editable=1;overflow=hidden;labelBackgroundColor=default;" vertex="1" parent="wTdHdL9RrJSgVrG5RqWx-261">
          <mxGeometry width="20" height="30" as="geometry">
            <mxRectangle width="20" height="30" as="alternateBounds" />
          </mxGeometry>
        </mxCell>
        <mxCell id="wTdHdL9RrJSgVrG5RqWx-263" value="Id" style="shape=partialRectangle;connectable=0;fillColor=none;top=0;left=0;bottom=0;right=0;editable=1;overflow=hidden;labelBackgroundColor=default;" vertex="1" parent="wTdHdL9RrJSgVrG5RqWx-261">
          <mxGeometry x="20" width="150" height="30" as="geometry">
            <mxRectangle width="150" height="30" as="alternateBounds" />
          </mxGeometry>
        </mxCell>
        <mxCell id="wTdHdL9RrJSgVrG5RqWx-264" value="big int" style="shape=partialRectangle;connectable=0;fillColor=none;top=0;left=0;bottom=0;right=0;align=left;spacingLeft=6;overflow=hidden;labelBackgroundColor=default;" vertex="1" parent="wTdHdL9RrJSgVrG5RqWx-261">
          <mxGeometry x="170" width="162" height="30" as="geometry">
            <mxRectangle width="162" height="30" as="alternateBounds" />
          </mxGeometry>
        </mxCell>
        <mxCell id="wTdHdL9RrJSgVrG5RqWx-265" style="shape=partialRectangle;collapsible=0;dropTarget=0;pointerEvents=0;fillColor=none;top=0;left=0;bottom=0;right=0;points=[[0,0.5],[1,0.5]];portConstraint=eastwest;labelBackgroundColor=default;" vertex="1" parent="wTdHdL9RrJSgVrG5RqWx-260">
          <mxGeometry y="60" width="332" height="30" as="geometry" />
        </mxCell>
        <mxCell id="wTdHdL9RrJSgVrG5RqWx-266" style="shape=partialRectangle;connectable=0;fillColor=none;top=0;left=0;bottom=0;right=0;editable=1;overflow=hidden;labelBackgroundColor=default;" vertex="1" parent="wTdHdL9RrJSgVrG5RqWx-265">
          <mxGeometry width="20" height="30" as="geometry">
            <mxRectangle width="20" height="30" as="alternateBounds" />
          </mxGeometry>
        </mxCell>
        <mxCell id="wTdHdL9RrJSgVrG5RqWx-267" value="Name" style="shape=partialRectangle;connectable=0;fillColor=none;top=0;left=0;bottom=0;right=0;editable=1;overflow=hidden;labelBackgroundColor=default;" vertex="1" parent="wTdHdL9RrJSgVrG5RqWx-265">
          <mxGeometry x="20" width="150" height="30" as="geometry">
            <mxRectangle width="150" height="30" as="alternateBounds" />
          </mxGeometry>
        </mxCell>
        <mxCell id="wTdHdL9RrJSgVrG5RqWx-268" value="varchar" style="shape=partialRectangle;connectable=0;fillColor=none;top=0;left=0;bottom=0;right=0;align=left;spacingLeft=6;overflow=hidden;labelBackgroundColor=default;" vertex="1" parent="wTdHdL9RrJSgVrG5RqWx-265">
          <mxGeometry x="170" width="162" height="30" as="geometry">
            <mxRectangle width="162" height="30" as="alternateBounds" />
          </mxGeometry>
        </mxCell>
        <mxCell id="wTdHdL9RrJSgVrG5RqWx-269" style="shape=partialRectangle;collapsible=0;dropTarget=0;pointerEvents=0;fillColor=none;top=0;left=0;bottom=0;right=0;points=[[0,0.5],[1,0.5]];portConstraint=eastwest;labelBackgroundColor=default;" vertex="1" parent="wTdHdL9RrJSgVrG5RqWx-260">
          <mxGeometry y="90" width="332" height="30" as="geometry" />
        </mxCell>
        <mxCell id="wTdHdL9RrJSgVrG5RqWx-270" style="shape=partialRectangle;connectable=0;fillColor=none;top=0;left=0;bottom=0;right=0;editable=1;overflow=hidden;labelBackgroundColor=default;" vertex="1" parent="wTdHdL9RrJSgVrG5RqWx-269">
          <mxGeometry width="20" height="30" as="geometry">
            <mxRectangle width="20" height="30" as="alternateBounds" />
          </mxGeometry>
        </mxCell>
        <mxCell id="wTdHdL9RrJSgVrG5RqWx-271" value="Description" style="shape=partialRectangle;connectable=0;fillColor=none;top=0;left=0;bottom=0;right=0;editable=1;overflow=hidden;labelBackgroundColor=default;" vertex="1" parent="wTdHdL9RrJSgVrG5RqWx-269">
          <mxGeometry x="20" width="150" height="30" as="geometry">
            <mxRectangle width="150" height="30" as="alternateBounds" />
          </mxGeometry>
        </mxCell>
        <mxCell id="wTdHdL9RrJSgVrG5RqWx-272" value="text" style="shape=partialRectangle;connectable=0;fillColor=none;top=0;left=0;bottom=0;right=0;align=left;spacingLeft=6;overflow=hidden;labelBackgroundColor=default;" vertex="1" parent="wTdHdL9RrJSgVrG5RqWx-269">
          <mxGeometry x="170" width="162" height="30" as="geometry">
            <mxRectangle width="162" height="30" as="alternateBounds" />
          </mxGeometry>
        </mxCell>
        <mxCell id="wTdHdL9RrJSgVrG5RqWx-273" style="shape=partialRectangle;collapsible=0;dropTarget=0;pointerEvents=0;fillColor=none;top=0;left=0;bottom=0;right=0;points=[[0,0.5],[1,0.5]];portConstraint=eastwest;labelBackgroundColor=default;" vertex="1" parent="wTdHdL9RrJSgVrG5RqWx-260">
          <mxGeometry y="120" width="332" height="30" as="geometry" />
        </mxCell>
        <mxCell id="wTdHdL9RrJSgVrG5RqWx-274" style="shape=partialRectangle;connectable=0;fillColor=none;top=0;left=0;bottom=0;right=0;editable=1;overflow=hidden;labelBackgroundColor=default;" vertex="1" parent="wTdHdL9RrJSgVrG5RqWx-273">
          <mxGeometry width="20" height="30" as="geometry">
            <mxRectangle width="20" height="30" as="alternateBounds" />
          </mxGeometry>
        </mxCell>
        <mxCell id="wTdHdL9RrJSgVrG5RqWx-275" value="Image" style="shape=partialRectangle;connectable=0;fillColor=none;top=0;left=0;bottom=0;right=0;editable=1;overflow=hidden;labelBackgroundColor=default;" vertex="1" parent="wTdHdL9RrJSgVrG5RqWx-273">
          <mxGeometry x="20" width="150" height="30" as="geometry">
            <mxRectangle width="150" height="30" as="alternateBounds" />
          </mxGeometry>
        </mxCell>
        <mxCell id="wTdHdL9RrJSgVrG5RqWx-276" value="varchar" style="shape=partialRectangle;connectable=0;fillColor=none;top=0;left=0;bottom=0;right=0;align=left;spacingLeft=6;overflow=hidden;labelBackgroundColor=default;" vertex="1" parent="wTdHdL9RrJSgVrG5RqWx-273">
          <mxGeometry x="170" width="162" height="30" as="geometry">
            <mxRectangle width="162" height="30" as="alternateBounds" />
          </mxGeometry>
        </mxCell>
        <mxCell id="wTdHdL9RrJSgVrG5RqWx-277" style="shape=partialRectangle;collapsible=0;dropTarget=0;pointerEvents=0;fillColor=none;top=0;left=0;bottom=0;right=0;points=[[0,0.5],[1,0.5]];portConstraint=eastwest;labelBackgroundColor=default;" vertex="1" parent="wTdHdL9RrJSgVrG5RqWx-260">
          <mxGeometry y="150" width="332" height="30" as="geometry" />
        </mxCell>
        <mxCell id="wTdHdL9RrJSgVrG5RqWx-278" style="shape=partialRectangle;connectable=0;fillColor=none;top=0;left=0;bottom=0;right=0;editable=1;overflow=hidden;labelBackgroundColor=default;" vertex="1" parent="wTdHdL9RrJSgVrG5RqWx-277">
          <mxGeometry width="20" height="30" as="geometry">
            <mxRectangle width="20" height="30" as="alternateBounds" />
          </mxGeometry>
        </mxCell>
        <mxCell id="wTdHdL9RrJSgVrG5RqWx-279" value="Creator Id" style="shape=partialRectangle;connectable=0;fillColor=none;top=0;left=0;bottom=0;right=0;editable=1;overflow=hidden;labelBackgroundColor=default;" vertex="1" parent="wTdHdL9RrJSgVrG5RqWx-277">
          <mxGeometry x="20" width="150" height="30" as="geometry">
            <mxRectangle width="150" height="30" as="alternateBounds" />
          </mxGeometry>
        </mxCell>
        <mxCell id="wTdHdL9RrJSgVrG5RqWx-280" value="big int" style="shape=partialRectangle;connectable=0;fillColor=none;top=0;left=0;bottom=0;right=0;align=left;spacingLeft=6;overflow=hidden;labelBackgroundColor=default;" vertex="1" parent="wTdHdL9RrJSgVrG5RqWx-277">
          <mxGeometry x="170" width="162" height="30" as="geometry">
            <mxRectangle width="162" height="30" as="alternateBounds" />
          </mxGeometry>
        </mxCell>
        <mxCell id="wTdHdL9RrJSgVrG5RqWx-311" style="shape=partialRectangle;collapsible=0;dropTarget=0;pointerEvents=0;fillColor=none;top=0;left=0;bottom=0;right=0;points=[[0,0.5],[1,0.5]];portConstraint=eastwest;labelBackgroundColor=default;" vertex="1" parent="wTdHdL9RrJSgVrG5RqWx-260">
          <mxGeometry y="180" width="332" height="30" as="geometry" />
        </mxCell>
        <mxCell id="wTdHdL9RrJSgVrG5RqWx-312" style="shape=partialRectangle;connectable=0;fillColor=none;top=0;left=0;bottom=0;right=0;editable=1;overflow=hidden;labelBackgroundColor=default;" vertex="1" parent="wTdHdL9RrJSgVrG5RqWx-311">
          <mxGeometry width="20" height="30" as="geometry">
            <mxRectangle width="20" height="30" as="alternateBounds" />
          </mxGeometry>
        </mxCell>
        <mxCell id="wTdHdL9RrJSgVrG5RqWx-313" value="Price" style="shape=partialRectangle;connectable=0;fillColor=none;top=0;left=0;bottom=0;right=0;editable=1;overflow=hidden;labelBackgroundColor=default;" vertex="1" parent="wTdHdL9RrJSgVrG5RqWx-311">
          <mxGeometry x="20" width="150" height="30" as="geometry">
            <mxRectangle width="150" height="30" as="alternateBounds" />
          </mxGeometry>
        </mxCell>
        <mxCell id="wTdHdL9RrJSgVrG5RqWx-314" value="int" style="shape=partialRectangle;connectable=0;fillColor=none;top=0;left=0;bottom=0;right=0;align=left;spacingLeft=6;overflow=hidden;labelBackgroundColor=default;" vertex="1" parent="wTdHdL9RrJSgVrG5RqWx-311">
          <mxGeometry x="170" width="162" height="30" as="geometry">
            <mxRectangle width="162" height="30" as="alternateBounds" />
          </mxGeometry>
        </mxCell>
        <mxCell id="wTdHdL9RrJSgVrG5RqWx-315" value="Order" style="shape=table;startSize=30;container=1;collapsible=1;childLayout=tableLayout;fixedRows=1;rowLines=0;fontStyle=1;align=center;resizeLast=1;labelBackgroundColor=default;" vertex="1" parent="1">
          <mxGeometry x="480" y="720" width="332" height="230" as="geometry" />
        </mxCell>
        <mxCell id="wTdHdL9RrJSgVrG5RqWx-316" value="" style="shape=partialRectangle;collapsible=0;dropTarget=0;pointerEvents=0;fillColor=none;top=0;left=0;bottom=0;right=0;points=[[0,0.5],[1,0.5]];portConstraint=eastwest;labelBackgroundColor=default;" vertex="1" parent="wTdHdL9RrJSgVrG5RqWx-315">
          <mxGeometry y="30" width="332" height="30" as="geometry" />
        </mxCell>
        <mxCell id="wTdHdL9RrJSgVrG5RqWx-317" style="shape=partialRectangle;connectable=0;fillColor=none;top=0;left=0;bottom=0;right=0;editable=1;overflow=hidden;labelBackgroundColor=default;" vertex="1" parent="wTdHdL9RrJSgVrG5RqWx-316">
          <mxGeometry width="20" height="30" as="geometry">
            <mxRectangle width="20" height="30" as="alternateBounds" />
          </mxGeometry>
        </mxCell>
        <mxCell id="wTdHdL9RrJSgVrG5RqWx-318" value="Id" style="shape=partialRectangle;connectable=0;fillColor=none;top=0;left=0;bottom=0;right=0;editable=1;overflow=hidden;labelBackgroundColor=default;" vertex="1" parent="wTdHdL9RrJSgVrG5RqWx-316">
          <mxGeometry x="20" width="150" height="30" as="geometry">
            <mxRectangle width="150" height="30" as="alternateBounds" />
          </mxGeometry>
        </mxCell>
        <mxCell id="wTdHdL9RrJSgVrG5RqWx-319" value="big int" style="shape=partialRectangle;connectable=0;fillColor=none;top=0;left=0;bottom=0;right=0;align=left;spacingLeft=6;overflow=hidden;labelBackgroundColor=default;" vertex="1" parent="wTdHdL9RrJSgVrG5RqWx-316">
          <mxGeometry x="170" width="162" height="30" as="geometry">
            <mxRectangle width="162" height="30" as="alternateBounds" />
          </mxGeometry>
        </mxCell>
        <mxCell id="wTdHdL9RrJSgVrG5RqWx-320" style="shape=partialRectangle;collapsible=0;dropTarget=0;pointerEvents=0;fillColor=none;top=0;left=0;bottom=0;right=0;points=[[0,0.5],[1,0.5]];portConstraint=eastwest;labelBackgroundColor=default;" vertex="1" parent="wTdHdL9RrJSgVrG5RqWx-315">
          <mxGeometry y="60" width="332" height="30" as="geometry" />
        </mxCell>
        <mxCell id="wTdHdL9RrJSgVrG5RqWx-321" style="shape=partialRectangle;connectable=0;fillColor=none;top=0;left=0;bottom=0;right=0;editable=1;overflow=hidden;labelBackgroundColor=default;" vertex="1" parent="wTdHdL9RrJSgVrG5RqWx-320">
          <mxGeometry width="20" height="30" as="geometry">
            <mxRectangle width="20" height="30" as="alternateBounds" />
          </mxGeometry>
        </mxCell>
        <mxCell id="wTdHdL9RrJSgVrG5RqWx-322" value="Product_Id" style="shape=partialRectangle;connectable=0;fillColor=none;top=0;left=0;bottom=0;right=0;editable=1;overflow=hidden;labelBackgroundColor=default;" vertex="1" parent="wTdHdL9RrJSgVrG5RqWx-320">
          <mxGeometry x="20" width="150" height="30" as="geometry">
            <mxRectangle width="150" height="30" as="alternateBounds" />
          </mxGeometry>
        </mxCell>
        <mxCell id="wTdHdL9RrJSgVrG5RqWx-323" value="big int" style="shape=partialRectangle;connectable=0;fillColor=none;top=0;left=0;bottom=0;right=0;align=left;spacingLeft=6;overflow=hidden;labelBackgroundColor=default;" vertex="1" parent="wTdHdL9RrJSgVrG5RqWx-320">
          <mxGeometry x="170" width="162" height="30" as="geometry">
            <mxRectangle width="162" height="30" as="alternateBounds" />
          </mxGeometry>
        </mxCell>
        <mxCell id="wTdHdL9RrJSgVrG5RqWx-324" style="shape=partialRectangle;collapsible=0;dropTarget=0;pointerEvents=0;fillColor=none;top=0;left=0;bottom=0;right=0;points=[[0,0.5],[1,0.5]];portConstraint=eastwest;labelBackgroundColor=default;" vertex="1" parent="wTdHdL9RrJSgVrG5RqWx-315">
          <mxGeometry y="90" width="332" height="30" as="geometry" />
        </mxCell>
        <mxCell id="wTdHdL9RrJSgVrG5RqWx-325" style="shape=partialRectangle;connectable=0;fillColor=none;top=0;left=0;bottom=0;right=0;editable=1;overflow=hidden;labelBackgroundColor=default;" vertex="1" parent="wTdHdL9RrJSgVrG5RqWx-324">
          <mxGeometry width="20" height="30" as="geometry">
            <mxRectangle width="20" height="30" as="alternateBounds" />
          </mxGeometry>
        </mxCell>
        <mxCell id="wTdHdL9RrJSgVrG5RqWx-326" value="Supplier_Id" style="shape=partialRectangle;connectable=0;fillColor=none;top=0;left=0;bottom=0;right=0;editable=1;overflow=hidden;labelBackgroundColor=default;" vertex="1" parent="wTdHdL9RrJSgVrG5RqWx-324">
          <mxGeometry x="20" width="150" height="30" as="geometry">
            <mxRectangle width="150" height="30" as="alternateBounds" />
          </mxGeometry>
        </mxCell>
        <mxCell id="wTdHdL9RrJSgVrG5RqWx-327" value="big int" style="shape=partialRectangle;connectable=0;fillColor=none;top=0;left=0;bottom=0;right=0;align=left;spacingLeft=6;overflow=hidden;labelBackgroundColor=default;" vertex="1" parent="wTdHdL9RrJSgVrG5RqWx-324">
          <mxGeometry x="170" width="162" height="30" as="geometry">
            <mxRectangle width="162" height="30" as="alternateBounds" />
          </mxGeometry>
        </mxCell>
        <mxCell id="wTdHdL9RrJSgVrG5RqWx-328" style="shape=partialRectangle;collapsible=0;dropTarget=0;pointerEvents=0;fillColor=none;top=0;left=0;bottom=0;right=0;points=[[0,0.5],[1,0.5]];portConstraint=eastwest;labelBackgroundColor=default;" vertex="1" parent="wTdHdL9RrJSgVrG5RqWx-315">
          <mxGeometry y="120" width="332" height="30" as="geometry" />
        </mxCell>
        <mxCell id="wTdHdL9RrJSgVrG5RqWx-329" style="shape=partialRectangle;connectable=0;fillColor=none;top=0;left=0;bottom=0;right=0;editable=1;overflow=hidden;labelBackgroundColor=default;" vertex="1" parent="wTdHdL9RrJSgVrG5RqWx-328">
          <mxGeometry width="20" height="30" as="geometry">
            <mxRectangle width="20" height="30" as="alternateBounds" />
          </mxGeometry>
        </mxCell>
        <mxCell id="wTdHdL9RrJSgVrG5RqWx-330" value="Created_at" style="shape=partialRectangle;connectable=0;fillColor=none;top=0;left=0;bottom=0;right=0;editable=1;overflow=hidden;labelBackgroundColor=default;" vertex="1" parent="wTdHdL9RrJSgVrG5RqWx-328">
          <mxGeometry x="20" width="150" height="30" as="geometry">
            <mxRectangle width="150" height="30" as="alternateBounds" />
          </mxGeometry>
        </mxCell>
        <mxCell id="wTdHdL9RrJSgVrG5RqWx-331" value="date time" style="shape=partialRectangle;connectable=0;fillColor=none;top=0;left=0;bottom=0;right=0;align=left;spacingLeft=6;overflow=hidden;labelBackgroundColor=default;" vertex="1" parent="wTdHdL9RrJSgVrG5RqWx-328">
          <mxGeometry x="170" width="162" height="30" as="geometry">
            <mxRectangle width="162" height="30" as="alternateBounds" />
          </mxGeometry>
        </mxCell>
        <mxCell id="wTdHdL9RrJSgVrG5RqWx-332" style="shape=partialRectangle;collapsible=0;dropTarget=0;pointerEvents=0;fillColor=none;top=0;left=0;bottom=0;right=0;points=[[0,0.5],[1,0.5]];portConstraint=eastwest;labelBackgroundColor=default;" vertex="1" parent="wTdHdL9RrJSgVrG5RqWx-315">
          <mxGeometry y="150" width="332" height="30" as="geometry" />
        </mxCell>
        <mxCell id="wTdHdL9RrJSgVrG5RqWx-333" style="shape=partialRectangle;connectable=0;fillColor=none;top=0;left=0;bottom=0;right=0;editable=1;overflow=hidden;labelBackgroundColor=default;" vertex="1" parent="wTdHdL9RrJSgVrG5RqWx-332">
          <mxGeometry width="20" height="30" as="geometry">
            <mxRectangle width="20" height="30" as="alternateBounds" />
          </mxGeometry>
        </mxCell>
        <mxCell id="wTdHdL9RrJSgVrG5RqWx-334" value="Admin_Id" style="shape=partialRectangle;connectable=0;fillColor=none;top=0;left=0;bottom=0;right=0;editable=1;overflow=hidden;labelBackgroundColor=default;" vertex="1" parent="wTdHdL9RrJSgVrG5RqWx-332">
          <mxGeometry x="20" width="150" height="30" as="geometry">
            <mxRectangle width="150" height="30" as="alternateBounds" />
          </mxGeometry>
        </mxCell>
        <mxCell id="wTdHdL9RrJSgVrG5RqWx-335" value="big int" style="shape=partialRectangle;connectable=0;fillColor=none;top=0;left=0;bottom=0;right=0;align=left;spacingLeft=6;overflow=hidden;labelBackgroundColor=default;" vertex="1" parent="wTdHdL9RrJSgVrG5RqWx-332">
          <mxGeometry x="170" width="162" height="30" as="geometry">
            <mxRectangle width="162" height="30" as="alternateBounds" />
          </mxGeometry>
        </mxCell>
        <mxCell id="wTdHdL9RrJSgVrG5RqWx-336" style="shape=partialRectangle;collapsible=0;dropTarget=0;pointerEvents=0;fillColor=none;top=0;left=0;bottom=0;right=0;points=[[0,0.5],[1,0.5]];portConstraint=eastwest;labelBackgroundColor=default;" vertex="1" parent="wTdHdL9RrJSgVrG5RqWx-315">
          <mxGeometry y="180" width="332" height="30" as="geometry" />
        </mxCell>
        <mxCell id="wTdHdL9RrJSgVrG5RqWx-337" style="shape=partialRectangle;connectable=0;fillColor=none;top=0;left=0;bottom=0;right=0;editable=1;overflow=hidden;labelBackgroundColor=default;" vertex="1" parent="wTdHdL9RrJSgVrG5RqWx-336">
          <mxGeometry width="20" height="30" as="geometry">
            <mxRectangle width="20" height="30" as="alternateBounds" />
          </mxGeometry>
        </mxCell>
        <mxCell id="wTdHdL9RrJSgVrG5RqWx-338" value="Consument_Id" style="shape=partialRectangle;connectable=0;fillColor=none;top=0;left=0;bottom=0;right=0;editable=1;overflow=hidden;labelBackgroundColor=default;" vertex="1" parent="wTdHdL9RrJSgVrG5RqWx-336">
          <mxGeometry x="20" width="150" height="30" as="geometry">
            <mxRectangle width="150" height="30" as="alternateBounds" />
          </mxGeometry>
        </mxCell>
        <mxCell id="wTdHdL9RrJSgVrG5RqWx-339" value="big int" style="shape=partialRectangle;connectable=0;fillColor=none;top=0;left=0;bottom=0;right=0;align=left;spacingLeft=6;overflow=hidden;labelBackgroundColor=default;" vertex="1" parent="wTdHdL9RrJSgVrG5RqWx-336">
          <mxGeometry x="170" width="162" height="30" as="geometry">
            <mxRectangle width="162" height="30" as="alternateBounds" />
          </mxGeometry>
        </mxCell>
        <mxCell id="wTdHdL9RrJSgVrG5RqWx-340" value="Supplier" style="shape=table;startSize=30;container=1;collapsible=1;childLayout=tableLayout;fixedRows=1;rowLines=0;fontStyle=1;align=center;resizeLast=1;labelBackgroundColor=default;" vertex="1" parent="1">
          <mxGeometry x="1040" y="665" width="332" height="140" as="geometry" />
        </mxCell>
        <mxCell id="wTdHdL9RrJSgVrG5RqWx-341" value="" style="shape=partialRectangle;collapsible=0;dropTarget=0;pointerEvents=0;fillColor=none;top=0;left=0;bottom=0;right=0;points=[[0,0.5],[1,0.5]];portConstraint=eastwest;labelBackgroundColor=default;" vertex="1" parent="wTdHdL9RrJSgVrG5RqWx-340">
          <mxGeometry y="30" width="332" height="30" as="geometry" />
        </mxCell>
        <mxCell id="wTdHdL9RrJSgVrG5RqWx-342" style="shape=partialRectangle;connectable=0;fillColor=none;top=0;left=0;bottom=0;right=0;editable=1;overflow=hidden;labelBackgroundColor=default;" vertex="1" parent="wTdHdL9RrJSgVrG5RqWx-341">
          <mxGeometry width="20" height="30" as="geometry">
            <mxRectangle width="20" height="30" as="alternateBounds" />
          </mxGeometry>
        </mxCell>
        <mxCell id="wTdHdL9RrJSgVrG5RqWx-343" value="Id" style="shape=partialRectangle;connectable=0;fillColor=none;top=0;left=0;bottom=0;right=0;editable=1;overflow=hidden;labelBackgroundColor=default;" vertex="1" parent="wTdHdL9RrJSgVrG5RqWx-341">
          <mxGeometry x="20" width="150" height="30" as="geometry">
            <mxRectangle width="150" height="30" as="alternateBounds" />
          </mxGeometry>
        </mxCell>
        <mxCell id="wTdHdL9RrJSgVrG5RqWx-344" value="big int" style="shape=partialRectangle;connectable=0;fillColor=none;top=0;left=0;bottom=0;right=0;align=left;spacingLeft=6;overflow=hidden;labelBackgroundColor=default;" vertex="1" parent="wTdHdL9RrJSgVrG5RqWx-341">
          <mxGeometry x="170" width="162" height="30" as="geometry">
            <mxRectangle width="162" height="30" as="alternateBounds" />
          </mxGeometry>
        </mxCell>
        <mxCell id="wTdHdL9RrJSgVrG5RqWx-345" style="shape=partialRectangle;collapsible=0;dropTarget=0;pointerEvents=0;fillColor=none;top=0;left=0;bottom=0;right=0;points=[[0,0.5],[1,0.5]];portConstraint=eastwest;labelBackgroundColor=default;" vertex="1" parent="wTdHdL9RrJSgVrG5RqWx-340">
          <mxGeometry y="60" width="332" height="30" as="geometry" />
        </mxCell>
        <mxCell id="wTdHdL9RrJSgVrG5RqWx-346" style="shape=partialRectangle;connectable=0;fillColor=none;top=0;left=0;bottom=0;right=0;editable=1;overflow=hidden;labelBackgroundColor=default;" vertex="1" parent="wTdHdL9RrJSgVrG5RqWx-345">
          <mxGeometry width="20" height="30" as="geometry">
            <mxRectangle width="20" height="30" as="alternateBounds" />
          </mxGeometry>
        </mxCell>
        <mxCell id="wTdHdL9RrJSgVrG5RqWx-347" value="Name" style="shape=partialRectangle;connectable=0;fillColor=none;top=0;left=0;bottom=0;right=0;editable=1;overflow=hidden;labelBackgroundColor=default;" vertex="1" parent="wTdHdL9RrJSgVrG5RqWx-345">
          <mxGeometry x="20" width="150" height="30" as="geometry">
            <mxRectangle width="150" height="30" as="alternateBounds" />
          </mxGeometry>
        </mxCell>
        <mxCell id="wTdHdL9RrJSgVrG5RqWx-348" value="varchar" style="shape=partialRectangle;connectable=0;fillColor=none;top=0;left=0;bottom=0;right=0;align=left;spacingLeft=6;overflow=hidden;labelBackgroundColor=default;" vertex="1" parent="wTdHdL9RrJSgVrG5RqWx-345">
          <mxGeometry x="170" width="162" height="30" as="geometry">
            <mxRectangle width="162" height="30" as="alternateBounds" />
          </mxGeometry>
        </mxCell>
        <mxCell id="wTdHdL9RrJSgVrG5RqWx-349" style="shape=partialRectangle;collapsible=0;dropTarget=0;pointerEvents=0;fillColor=none;top=0;left=0;bottom=0;right=0;points=[[0,0.5],[1,0.5]];portConstraint=eastwest;labelBackgroundColor=default;" vertex="1" parent="wTdHdL9RrJSgVrG5RqWx-340">
          <mxGeometry y="90" width="332" height="30" as="geometry" />
        </mxCell>
        <mxCell id="wTdHdL9RrJSgVrG5RqWx-350" style="shape=partialRectangle;connectable=0;fillColor=none;top=0;left=0;bottom=0;right=0;editable=1;overflow=hidden;labelBackgroundColor=default;" vertex="1" parent="wTdHdL9RrJSgVrG5RqWx-349">
          <mxGeometry width="20" height="30" as="geometry">
            <mxRectangle width="20" height="30" as="alternateBounds" />
          </mxGeometry>
        </mxCell>
        <mxCell id="wTdHdL9RrJSgVrG5RqWx-351" value="Password" style="shape=partialRectangle;connectable=0;fillColor=none;top=0;left=0;bottom=0;right=0;editable=1;overflow=hidden;labelBackgroundColor=default;" vertex="1" parent="wTdHdL9RrJSgVrG5RqWx-349">
          <mxGeometry x="20" width="150" height="30" as="geometry">
            <mxRectangle width="150" height="30" as="alternateBounds" />
          </mxGeometry>
        </mxCell>
        <mxCell id="wTdHdL9RrJSgVrG5RqWx-352" value="varchar" style="shape=partialRectangle;connectable=0;fillColor=none;top=0;left=0;bottom=0;right=0;align=left;spacingLeft=6;overflow=hidden;labelBackgroundColor=default;" vertex="1" parent="wTdHdL9RrJSgVrG5RqWx-349">
          <mxGeometry x="170" width="162" height="30" as="geometry">
            <mxRectangle width="162" height="30" as="alternateBounds" />
          </mxGeometry>
        </mxCell>
        <mxCell id="wTdHdL9RrJSgVrG5RqWx-365" value="Comsument/Pembeli" style="shape=table;startSize=30;container=1;collapsible=1;childLayout=tableLayout;fixedRows=1;rowLines=0;fontStyle=1;align=center;resizeLast=1;labelBackgroundColor=default;" vertex="1" parent="1">
          <mxGeometry x="1040" y="865" width="332" height="140" as="geometry" />
        </mxCell>
        <mxCell id="wTdHdL9RrJSgVrG5RqWx-366" value="" style="shape=partialRectangle;collapsible=0;dropTarget=0;pointerEvents=0;fillColor=none;top=0;left=0;bottom=0;right=0;points=[[0,0.5],[1,0.5]];portConstraint=eastwest;labelBackgroundColor=default;" vertex="1" parent="wTdHdL9RrJSgVrG5RqWx-365">
          <mxGeometry y="30" width="332" height="30" as="geometry" />
        </mxCell>
        <mxCell id="wTdHdL9RrJSgVrG5RqWx-367" style="shape=partialRectangle;connectable=0;fillColor=none;top=0;left=0;bottom=0;right=0;editable=1;overflow=hidden;labelBackgroundColor=default;" vertex="1" parent="wTdHdL9RrJSgVrG5RqWx-366">
          <mxGeometry width="20" height="30" as="geometry">
            <mxRectangle width="20" height="30" as="alternateBounds" />
          </mxGeometry>
        </mxCell>
        <mxCell id="wTdHdL9RrJSgVrG5RqWx-368" value="Id" style="shape=partialRectangle;connectable=0;fillColor=none;top=0;left=0;bottom=0;right=0;editable=1;overflow=hidden;labelBackgroundColor=default;" vertex="1" parent="wTdHdL9RrJSgVrG5RqWx-366">
          <mxGeometry x="20" width="150" height="30" as="geometry">
            <mxRectangle width="150" height="30" as="alternateBounds" />
          </mxGeometry>
        </mxCell>
        <mxCell id="wTdHdL9RrJSgVrG5RqWx-369" value="big int" style="shape=partialRectangle;connectable=0;fillColor=none;top=0;left=0;bottom=0;right=0;align=left;spacingLeft=6;overflow=hidden;labelBackgroundColor=default;" vertex="1" parent="wTdHdL9RrJSgVrG5RqWx-366">
          <mxGeometry x="170" width="162" height="30" as="geometry">
            <mxRectangle width="162" height="30" as="alternateBounds" />
          </mxGeometry>
        </mxCell>
        <mxCell id="wTdHdL9RrJSgVrG5RqWx-370" style="shape=partialRectangle;collapsible=0;dropTarget=0;pointerEvents=0;fillColor=none;top=0;left=0;bottom=0;right=0;points=[[0,0.5],[1,0.5]];portConstraint=eastwest;labelBackgroundColor=default;" vertex="1" parent="wTdHdL9RrJSgVrG5RqWx-365">
          <mxGeometry y="60" width="332" height="30" as="geometry" />
        </mxCell>
        <mxCell id="wTdHdL9RrJSgVrG5RqWx-371" style="shape=partialRectangle;connectable=0;fillColor=none;top=0;left=0;bottom=0;right=0;editable=1;overflow=hidden;labelBackgroundColor=default;" vertex="1" parent="wTdHdL9RrJSgVrG5RqWx-370">
          <mxGeometry width="20" height="30" as="geometry">
            <mxRectangle width="20" height="30" as="alternateBounds" />
          </mxGeometry>
        </mxCell>
        <mxCell id="wTdHdL9RrJSgVrG5RqWx-372" value="Name" style="shape=partialRectangle;connectable=0;fillColor=none;top=0;left=0;bottom=0;right=0;editable=1;overflow=hidden;labelBackgroundColor=default;" vertex="1" parent="wTdHdL9RrJSgVrG5RqWx-370">
          <mxGeometry x="20" width="150" height="30" as="geometry">
            <mxRectangle width="150" height="30" as="alternateBounds" />
          </mxGeometry>
        </mxCell>
        <mxCell id="wTdHdL9RrJSgVrG5RqWx-373" value="varchar" style="shape=partialRectangle;connectable=0;fillColor=none;top=0;left=0;bottom=0;right=0;align=left;spacingLeft=6;overflow=hidden;labelBackgroundColor=default;" vertex="1" parent="wTdHdL9RrJSgVrG5RqWx-370">
          <mxGeometry x="170" width="162" height="30" as="geometry">
            <mxRectangle width="162" height="30" as="alternateBounds" />
          </mxGeometry>
        </mxCell>
        <mxCell id="wTdHdL9RrJSgVrG5RqWx-374" style="shape=partialRectangle;collapsible=0;dropTarget=0;pointerEvents=0;fillColor=none;top=0;left=0;bottom=0;right=0;points=[[0,0.5],[1,0.5]];portConstraint=eastwest;labelBackgroundColor=default;" vertex="1" parent="wTdHdL9RrJSgVrG5RqWx-365">
          <mxGeometry y="90" width="332" height="30" as="geometry" />
        </mxCell>
        <mxCell id="wTdHdL9RrJSgVrG5RqWx-375" style="shape=partialRectangle;connectable=0;fillColor=none;top=0;left=0;bottom=0;right=0;editable=1;overflow=hidden;labelBackgroundColor=default;" vertex="1" parent="wTdHdL9RrJSgVrG5RqWx-374">
          <mxGeometry width="20" height="30" as="geometry">
            <mxRectangle width="20" height="30" as="alternateBounds" />
          </mxGeometry>
        </mxCell>
        <mxCell id="wTdHdL9RrJSgVrG5RqWx-376" value="Password" style="shape=partialRectangle;connectable=0;fillColor=none;top=0;left=0;bottom=0;right=0;editable=1;overflow=hidden;labelBackgroundColor=default;" vertex="1" parent="wTdHdL9RrJSgVrG5RqWx-374">
          <mxGeometry x="20" width="150" height="30" as="geometry">
            <mxRectangle width="150" height="30" as="alternateBounds" />
          </mxGeometry>
        </mxCell>
        <mxCell id="wTdHdL9RrJSgVrG5RqWx-377" value="varchar" style="shape=partialRectangle;connectable=0;fillColor=none;top=0;left=0;bottom=0;right=0;align=left;spacingLeft=6;overflow=hidden;labelBackgroundColor=default;" vertex="1" parent="wTdHdL9RrJSgVrG5RqWx-374">
          <mxGeometry x="170" width="162" height="30" as="geometry">
            <mxRectangle width="162" height="30" as="alternateBounds" />
          </mxGeometry>
        </mxCell>
        <mxCell id="wTdHdL9RrJSgVrG5RqWx-380" value="" style="edgeStyle=orthogonalEdgeStyle;fontSize=12;html=1;endArrow=ERzeroToMany;startArrow=ERmandOne;rounded=0;entryX=0.5;entryY=1;entryDx=0;entryDy=0;" edge="1" parent="1" target="wTdHdL9RrJSgVrG5RqWx-260">
          <mxGeometry width="100" height="100" relative="1" as="geometry">
            <mxPoint x="350" y="669" as="sourcePoint" />
            <mxPoint x="560" y="680" as="targetPoint" />
          </mxGeometry>
        </mxCell>
        <mxCell id="wTdHdL9RrJSgVrG5RqWx-381" value="" style="edgeStyle=orthogonalEdgeStyle;fontSize=12;html=1;endArrow=ERzeroToMany;startArrow=ERmandOne;rounded=0;exitX=0.5;exitY=1;exitDx=0;exitDy=0;" edge="1" parent="1" source="wTdHdL9RrJSgVrG5RqWx-213" target="wTdHdL9RrJSgVrG5RqWx-328">
          <mxGeometry width="100" height="100" relative="1" as="geometry">
            <mxPoint x="110" y="859" as="sourcePoint" />
            <mxPoint x="405.9999999999998" y="780" as="targetPoint" />
          </mxGeometry>
        </mxCell>
        <mxCell id="wTdHdL9RrJSgVrG5RqWx-382" value="" style="edgeStyle=orthogonalEdgeStyle;fontSize=12;html=1;endArrow=ERzeroToMany;startArrow=ERmandOne;rounded=0;entryX=1;entryY=0.5;entryDx=0;entryDy=0;exitX=0;exitY=0.5;exitDx=0;exitDy=0;" edge="1" parent="1" source="wTdHdL9RrJSgVrG5RqWx-370" target="wTdHdL9RrJSgVrG5RqWx-328">
          <mxGeometry width="100" height="100" relative="1" as="geometry">
            <mxPoint x="822" y="830" as="sourcePoint" />
            <mxPoint x="936" y="895" as="targetPoint" />
            <Array as="points">
              <mxPoint x="930" y="940" />
              <mxPoint x="930" y="855" />
            </Array>
          </mxGeometry>
        </mxCell>
        <mxCell id="wTdHdL9RrJSgVrG5RqWx-383" value="" style="edgeStyle=orthogonalEdgeStyle;fontSize=12;html=1;endArrow=ERzeroToMany;startArrow=ERmandOne;rounded=0;entryX=1;entryY=0.5;entryDx=0;entryDy=0;exitX=0;exitY=0.5;exitDx=0;exitDy=0;" edge="1" parent="1" source="wTdHdL9RrJSgVrG5RqWx-349" target="wTdHdL9RrJSgVrG5RqWx-328">
          <mxGeometry width="100" height="100" relative="1" as="geometry">
            <mxPoint x="1050" y="950" as="sourcePoint" />
            <mxPoint x="822.0000000000005" y="865" as="targetPoint" />
            <Array as="points">
              <mxPoint x="930" y="770" />
              <mxPoint x="930" y="855" />
            </Array>
          </mxGeometry>
        </mxCell>
      </root>
    </mxGraphModel>
  </diagram>
</mxfile>
